# xmcd CD database file
#
# Track frame offsets:
#	150
#	19950
#	37237
#	63337
#	77650
#	96540
#	112917
#	131592
#
# Disc length: 1989 seconds
#
# Revision: 0
# Processed by: cddbd v1.4PL0 Copyright (c) Steve Scherf et al.
# Submitted via: CDex 1.50
#
DISCID=6a07c308
DTITLE=Ryan Hartt and The Blues Hearts - Ryan Hartt and The Blues Hearts
DYEAR=2001
DGENRE=Blues
TTITLE0=She May Be Yours
TTITLE1=Rock All Night
TTITLE2=Sallie Mae
TTITLE3=On The Spot
TTITLE4=On My Mind
TTITLE5=North of Franklin
TTITLE6=Dreamboat Blues
TTITLE7=The Spackle
EXTD=YEAR: 2001
EXTT0=
EXTT1=
EXTT2=
EXTT3=
EXTT4=
EXTT5=
EXTT6=
EXTT7=
PLAYORDER=
